<?xml version="1.0" encoding="UTF-8" standalone="no"?>
<!-- Created with Inkscape (http://www.inkscape.org/) -->

<svg
  version="1.1"
  id="svg1"
  width="2106.4534"
  height="1101.6267"
  viewBox="0 0 1053.2267 550.81335"
  sodipodi:docname="logofinal.svg"
  inkscape:version="1.3.2 (091e20e, 2023-11-25)"
  xmlns:inkscape="http://www.inkscape.org/namespaces/inkscape"
  xmlns:sodipodi="http://sodipodi.sourceforge.net/DTD/sodipodi-0.dtd"
  xmlns:xlink="http://www.w3.org/1999/xlink"
  xmlns="http://www.w3.org/2000/svg"
  xmlns:svg="http://www.w3.org/2000/svg">
  <defs
    id="defs1">
    <linearGradient
      id="linearGradient17"
      inkscape:collect="always">
      <stop
        style="stop-color:#b308fc;stop-opacity:1;"
        offset="0"
        id="stop17" />
      <stop
        style="stop-color:#d142ff;stop-opacity:0.85490197;"
        offset="0.13267542"
        id="stop24" />
      <stop
        style="stop-color:#ec90f9;stop-opacity:0.86274511;"
        offset="0.2589547"
        id="stop25" />
      <stop
        style="stop-color:#faaefb;stop-opacity:0.86666667;"
        offset="0.40396565"
        id="stop26" />
      <stop
        style="stop-color:#fcbdf3;stop-opacity:0.87058824;"
        offset="0.52033079"
        id="stop27" />
      <stop
        style="stop-color:#fcc4dc;stop-opacity:0.87058824;"
        offset="0.65892267"
        id="stop28" />
      <stop
        style="stop-color:#fdccd3;stop-opacity:0.87450981;"
        offset="0.7858187"
        id="stop21" />
    </linearGradient>
    <linearGradient
      x1="0"
      y1="0"
      x2="1"
      y2="0"
      gradientUnits="userSpaceOnUse"
      gradientTransform="matrix(353.746,-298.772,-298.772,-353.746,3069.42,3059.07)"
      spreadMethod="pad"
      id="linearGradient137">
      <stop
        style="stop-opacity:1;stop-color:#f9d76c"
        offset="0"
        id="stop131" />
      <stop
        style="stop-opacity:1;stop-color:#f9d76c"
        offset="0.0011048"
        id="stop132" />
      <stop
        style="stop-opacity:1;stop-color:#f9a837"
        offset="0.209357"
        id="stop133" />
      <stop
        style="stop-opacity:1;stop-color:#f03d74"
        offset="0.37646"
        id="stop134" />
      <stop
        style="stop-opacity:1;stop-color:#e62299"
        offset="0.523815"
        id="stop135" />
      <stop
        style="stop-opacity:1;stop-color:#6f3ea2"
        offset="0.739443"
        id="stop136" />
      <stop
        style="stop-opacity:1;stop-color:#4850ab"
        offset="1"
        id="stop137" />
    </linearGradient>
    <clipPath
      clipPathUnits="userSpaceOnUse"
      id="clipPath137">
      <path
        d="m 3412.04,2919.11 c 0,-97.7 -79.2,-176.91 -176.9,-176.91 -97.71,0 -176.91,79.21 -176.91,176.91 0,97.71 79.2,176.91 176.91,176.91 97.7,0 176.9,-79.2 176.9,-176.91 z"
        transform="translate(0,-2.5e-5)"
        id="path137" />
    </clipPath>
    <linearGradient
      x1="0"
      y1="0"
      x2="1"
      y2="0"
      gradientUnits="userSpaceOnUse"
      gradientTransform="matrix(320.881,-307.137,-307.137,-320.881,2525.7,3167.86)"
      spreadMethod="pad"
      id="linearGradient160">
      <stop
        style="stop-opacity:1;stop-color:#f9d76c"
        offset="0"
        id="stop154" />
      <stop
        style="stop-opacity:1;stop-color:#f9d76c"
        offset="0.0011048"
        id="stop155" />
      <stop
        style="stop-opacity:1;stop-color:#f9a837"
        offset="0.209357"
        id="stop156" />
      <stop
        style="stop-opacity:1;stop-color:#f03d74"
        offset="0.37646"
        id="stop157" />
      <stop
        style="stop-opacity:1;stop-color:#e62299"
        offset="0.523815"
        id="stop158" />
      <stop
        style="stop-opacity:1;stop-color:#6f3ea2"
        offset="0.739443"
        id="stop159" />
      <stop
        style="stop-opacity:1;stop-color:#4850ab"
        offset="1"
        id="stop160" />
    </linearGradient>
    <clipPath
      clipPathUnits="userSpaceOnUse"
      id="clipPath160">
      <path
        d="m 2687.78,3033.46 c -11.45,0 -20.74,-9.29 -20.74,-20.74 0,-11.46 9.29,-20.75 20.74,-20.75 11.46,0 20.74,9.29 20.74,20.75 0,11.45 -9.28,20.74 -20.74,20.74 z"
        transform="translate(0,-2.5e-5)"
        id="path160" />
    </clipPath>
    <linearGradient
      x1="0"
      y1="0"
      x2="1"
      y2="0"
      gradientUnits="userSpaceOnUse"
      gradientTransform="matrix(320.881,-307.137,-307.137,-320.881,2435.16,3073.26)"
      spreadMethod="pad"
      id="linearGradient167">
      <stop
        style="stop-opacity:1;stop-color:#f9d76c"
        offset="0"
        id="stop161" />
      <stop
        style="stop-opacity:1;stop-color:#f9d76c"
        offset="0.0011048"
        id="stop162" />
      <stop
        style="stop-opacity:1;stop-color:#f9a837"
        offset="0.209357"
        id="stop163" />
      <stop
        style="stop-opacity:1;stop-color:#f03d74"
        offset="0.37646"
        id="stop164" />
      <stop
        style="stop-opacity:1;stop-color:#e62299"
        offset="0.523815"
        id="stop165" />
      <stop
        style="stop-opacity:1;stop-color:#6f3ea2"
        offset="0.739443"
        id="stop166" />
      <stop
        style="stop-opacity:1;stop-color:#4850ab"
        offset="1"
        id="stop167" />
    </linearGradient>
    <clipPath
      clipPathUnits="userSpaceOnUse"
      id="clipPath167">
      <path
        d="m 2595.57,2863.91 c -30.78,0 -55.82,25.04 -55.82,55.81 0,30.78 25.04,55.82 55.82,55.82 30.77,0 55.81,-25.04 55.81,-55.82 0,-30.77 -25.04,-55.81 -55.81,-55.81 z m 0,142.95 c -48.05,0 -87.14,-39.09 -87.14,-87.14 0,-48.04 39.09,-87.13 87.14,-87.13 48.04,0 87.13,39.09 87.13,87.13 0,48.05 -39.09,87.14 -87.13,87.14 z"
        transform="translate(0,-2.5e-5)"
        id="path167" />
    </clipPath>
    <linearGradient
      x1="0"
      y1="0"
      x2="1"
      y2="0"
      gradientUnits="userSpaceOnUse"
      gradientTransform="matrix(320.879,-307.135,-307.135,-320.879,2434.46,3072.54)"
      spreadMethod="pad"
      id="linearGradient174">
      <stop
        style="stop-color:#6cc4f9;stop-opacity:1;"
        offset="0.0001"
        id="stop168" />
      <stop
        style="stop-opacity:1;stop-color:#f9d76c"
        offset="1"
        id="stop169" />
    </linearGradient>
    <clipPath
      clipPathUnits="userSpaceOnUse"
      id="clipPath174">
      <path
        d="m 2523.48,3063.34 c -40.25,0 -72.99,-32.74 -72.99,-72.99 v -141.26 c 0,-40.25 32.74,-72.99 72.99,-72.99 h 141.26 c 40.25,0 72.99,32.74 72.99,72.99 v 141.26 c 0,40.25 -32.74,72.99 -72.99,72.99 z m 141.26,-320.53 h -141.26 c -58.6,0 -106.27,47.68 -106.27,106.28 v 141.26 c 0,58.61 47.67,106.28 106.27,106.28 h 141.26 c 58.6,0 106.28,-47.67 106.28,-106.28 v -141.26 c 0,-58.6 -47.68,-106.28 -106.28,-106.28 z"
        transform="translate(0,-2.5e-5)"
        id="path174" />
    </clipPath>
    <linearGradient
      inkscape:collect="always"
      xlink:href="#linearGradient17"
      id="linearGradient18"
      x1="419.24747"
      y1="223.19225"
      x2="444.85297"
      y2="251.14828"
      gradientUnits="userSpaceOnUse"
      gradientTransform="translate(-8.736264,0.69890112)" />
  </defs>
  <sodipodi:namedview
     id="namedview1"
     pagecolor="#ffffff"
     bordercolor="#000000"
     borderopacity="0.25"
     inkscape:showpageshadow="2"
     inkscape:pageopacity="0.0"
     inkscape:pagecheckerboard="0"
     inkscape:deskcolor="#d1d1d1"
     inkscape:zoom="5.7232702"
     inkscape:cx="359.58462"
     inkscape:cy="268.55275"
     inkscape:window-width="1520"
     inkscape:window-height="1292"
     inkscape:window-x="1025"
     inkscape:window-y="111"
     inkscape:window-maximized="0"
     inkscape:current-layer="group-R5"
     showgrid="false">
    <inkscape:page
      x="0"
      y="0"
      inkscape:label="1"
      id="page1"
      width="1053.2267"
      height="550.81335"
      margin="0"
      bleed="0" />
  </sodipodi:namedview>
  <g
    id="g1"
    inkscape:groupmode="layer"
    inkscape:label="1">
    <g
      id="group-R5">
      <path
        id="path129-3"
        d="m 383.01643,234.64075 c 0,13.02667 -10.56,23.588 -23.58667,23.588 -13.028,0 -23.588,-10.56133 -23.588,-23.588 0,-13.028 10.56,-23.588 23.588,-23.588 13.02667,0 23.58667,10.56 23.58667,23.588"
        style="fill:#2fbbe1;fill-opacity:1;fill-rule:nonzero;stroke:none;stroke-width:0.133333" />
      <path
        id="path129"
        d="m 445.20242,235.07357 c 0,12.47441 -10.11231,22.588 -22.58672,22.588 -12.47568,0 -22.588,-10.11359 -22.588,-22.588 0,-12.47568 10.11232,-22.588 22.588,-22.588 12.47441,0 22.58672,10.11232 22.58672,22.588"
        style="fill:url(#linearGradient18);fill-rule:nonzero;stroke:none;stroke-width:0.127681" />
      <path
        id="path130"
        d="m 435.64772,226.99091 c -0.81733,0.36933 -1.72,0.59333 -2.60133,0.74133 0.41733,-0.0693 1.032,-0.82667 1.27867,-1.13333 0.376,-0.468 0.688,-1 0.864,-1.57467 0.0213,-0.0453 0.0387,-0.10133 -0.007,-0.136 -0.056,-0.0227 -0.092,-0.0107 -0.13733,0.012 -0.984,0.52667 -2.00134,0.90933 -3.08533,1.18 -0.0893,0.0227 -0.156,0 -0.212,-0.056 -0.0893,-0.10133 -0.17467,-0.19733 -0.26934,-0.276 -0.456,-0.388 -0.944,-0.69067 -1.49466,-0.916 -0.724,-0.29467 -1.51334,-0.41867 -2.292,-0.368 -0.75734,0.0493 -1.50134,0.26267 -2.17467,0.61333 -0.67333,0.352 -1.27467,0.84134 -1.75333,1.43334 -0.49467,0.61066 -0.86,1.332 -1.048,2.09733 -0.18,0.73867 -0.16534,1.46933 -0.0547,2.21467 0.016,0.124 0.005,0.14133 -0.10667,0.124 -4.23733,-0.63067 -7.748,-2.14534 -10.6,-5.39467 -0.12266,-0.14133 -0.19066,-0.14133 -0.292,0.0107 -1.24666,1.87066 -0.64133,4.87466 0.916,6.35066 0.208,0.19734 0.42267,0.39334 0.652,0.57334 -0.084,0.0173 -1.12133,-0.096 -2.04533,-0.57334 -0.124,-0.0787 -0.18533,-0.0333 -0.19733,0.10667 -0.0107,0.20267 0.007,0.388 0.0347,0.608 0.23867,1.89467 1.552,3.648 3.34934,4.332 0.21333,0.0907 0.44933,0.16933 0.68,0.208 -0.40934,0.0893 -0.832,0.15467 -2.00667,0.0613 -0.14667,-0.028 -0.20267,0.0453 -0.14667,0.18534 0.884,2.40666 2.788,3.12266 4.216,3.52933 0.19067,0.0347 0.38134,0.0347 0.57334,0.0787 -0.012,0.0173 -0.0227,0.0173 -0.0347,0.0333 -0.47333,0.72267 -2.11333,1.26 -2.87733,1.52667 -1.39067,0.48533 -2.904,0.704 -4.372,0.55866 -0.23467,-0.0333 -0.28534,-0.032 -0.348,0 -0.0653,0.04 -0.008,0.0973 0.0667,0.15734 0.29867,0.19733 0.60267,0.37066 0.91067,0.54 0.93333,0.49466 1.90533,0.888 2.92267,1.16933 5.25066,1.45067 11.16666,0.384 15.10933,-3.53333 3.09733,-3.07734 4.18266,-7.32 4.18266,-11.568 0,-0.16534 0.196,-0.25734 0.31334,-0.34534 0.80533,-0.60533 1.45466,-1.32933 2.056,-2.13866 0.13466,-0.18134 0.136,-0.34267 0.136,-0.40934 0,-0.012 0,-0.0227 0,-0.0227 0,-0.068 -10e-4,-0.0467 -0.10534,0"
        style="fill:#ffffff;fill-opacity:1;fill-rule:nonzero;stroke:none;stroke-width:0.133333" />
      <path
        id="path130-3"
        d="m 371.88647,225.88715 c -0.81733,0.36934 -1.72,0.59334 -2.60133,0.74134 0.41733,-0.0693 1.032,-0.82667 1.27866,-1.13334 0.376,-0.468 0.688,-1 0.864,-1.57466 0.0213,-0.0453 0.0387,-0.10134 -0.007,-0.136 -0.056,-0.0227 -0.092,-0.0107 -0.13734,0.012 -0.984,0.52666 -2.00133,0.90933 -3.08533,1.18 -0.0893,0.0227 -0.156,0 -0.212,-0.056 -0.0893,-0.10134 -0.17467,-0.19734 -0.26933,-0.276 -0.456,-0.388 -0.944,-0.69067 -1.49467,-0.916 -0.724,-0.29467 -1.51333,-0.41867 -2.292,-0.368 -0.75733,0.0493 -1.50133,0.26266 -2.17467,0.61333 -0.67333,0.352 -1.27466,0.84133 -1.75333,1.43333 -0.49467,0.61067 -0.86,1.332 -1.048,2.09734 -0.18,0.73866 -0.16533,1.46933 -0.0547,2.21466 0.016,0.124 0.005,0.14134 -0.10666,0.124 -4.23734,-0.63066 -7.748,-2.14533 -10.6,-5.39466 -0.12267,-0.14134 -0.19067,-0.14134 -0.292,0.0107 -1.24667,1.87067 -0.64134,4.87467 0.916,6.35067 0.208,0.19733 0.42266,0.39333 0.652,0.57333 -0.084,0.0173 -1.12134,-0.096 -2.04534,-0.57333 -0.124,-0.0787 -0.18533,-0.0333 -0.19733,0.10667 -0.0107,0.20266 0.007,0.388 0.0347,0.608 0.23866,1.89466 1.552,3.648 3.34933,4.332 0.21333,0.0907 0.44933,0.16933 0.68,0.208 -0.40933,0.0893 -0.832,0.15466 -2.00667,0.0613 -0.14666,-0.028 -0.20266,0.0453 -0.14666,0.18533 0.884,2.40667 2.788,3.12267 4.216,3.52934 0.19066,0.0347 0.38133,0.0347 0.57333,0.0787 -0.012,0.0173 -0.0227,0.0173 -0.0347,0.0333 -0.47333,0.72266 -2.11333,1.26 -2.87733,1.52666 -1.39067,0.48534 -2.904,0.704 -4.372,0.55867 -0.23467,-0.0333 -0.28533,-0.032 -0.348,0 -0.0653,0.04 -0.008,0.0973 0.0667,0.15733 0.29866,0.19734 0.60266,0.37067 0.91066,0.54 0.93334,0.49467 1.90534,0.888 2.92267,1.16934 5.25067,1.45066 11.16667,0.384 15.10933,-3.53334 3.09734,-3.07733 4.18267,-7.32 4.18267,-11.568 0,-0.16533 0.196,-0.25733 0.31333,-0.34533 0.80534,-0.60533 1.45467,-1.32933 2.056,-2.13867 0.13467,-0.18133 0.136,-0.34266 0.136,-0.40933 0,-0.012 0,-0.0227 0,-0.0227 0,-0.068 -0.001,-0.0467 -0.10533,0"
        style="fill:#ffffff;fill-opacity:1;fill-rule:nonzero;stroke:none;stroke-width:0.133333" />
    </g>
  </g>
</svg>