<?xml version="1.0" encoding="UTF-8" standalone="no"?>
<!-- Created with Inkscape (http://www.inkscape.org/) -->

<svg
   version="1.1"
   id="svg1"
   width="4533.3335"
   height="2666.6667"
   viewBox="0 0 4533.3335 2666.6667"
   sodipodi:docname="palmerasfinal.svg"
   inkscape:version="1.3.2 (091e20e, 2023-11-25)"
   xmlns:inkscape="http://www.inkscape.org/namespaces/inkscape"
   xmlns:sodipodi="http://sodipodi.sourceforge.net/DTD/sodipodi-0.dtd"
   xmlns="http://www.w3.org/2000/svg"
   xmlns:svg="http://www.w3.org/2000/svg">
  <defs
     id="defs1" />
  <sodipodi:namedview
     id="namedview1"
     pagecolor="#ffffff"
     bordercolor="#000000"
     borderopacity="0.25"
     inkscape:showpageshadow="2"
     inkscape:pageopacity="0.0"
     inkscape:pagecheckerboard="0"
     inkscape:deskcolor="#d1d1d1"
     inkscape:zoom="0.32153204"
     inkscape:cx="2870.6315"
     inkscape:cy="1254.9294"
     inkscape:window-width="1504"
     inkscape:window-height="1212"
     inkscape:window-x="-12"
     inkscape:window-y="200"
     inkscape:window-maximized="0"
     inkscape:current-layer="group-R5">
    <inkscape:page
       x="0"
       y="0"
       inkscape:label="1"
       id="page1"
       width="4533.3335"
       height="2666.6667"
       margin="0"
       bleed="0" />
  </sodipodi:namedview>
  <g
     id="g1"
     inkscape:groupmode="layer"
     inkscape:label="1">
    <g
       id="group-R5"
       transform="translate(-18.428186,9.2140924)">
      <path
         id="path55"
         d="m 1778.8503,214.04053 c -56.44,-47.01333 -123.0667,-81.70666 -193.9333,-100.98666 9.2533,13.32 23.4133,22.24 37.1866,30.8 -19.16,-1.10667 -38.32,-2.2 -57.4933,-3.30667 16.9733,7.77334 32.96,17.70667 47.4533,29.48 -31.6133,-5.4 -64.0266,-6.08 -95.8266,-2 9.52,5.50667 18.4266,12.09334 26.48,19.58667 -13.5467,-1.2 -27.4667,2.54667 -38.56,10.38667 5.64,3.32 10.28,8.34666 13.12,14.23999 -3.56,0.72 -7.1467,1.44 -10.72,2.14667 13.3866,27.52 43.8933,41.34667 71.4933,54.56 39.64,18.98667 77.8267,40.98667 114.12,65.77333 -51.44,11.44 -101.2533,30.12 -147.5333,55.32 10.3066,2.05333 20.8933,2.72 31.3733,1.97333 -9.0533,4.72 -17.4933,10.58667 -25.08,17.42667 7.7733,1.37333 15.56,2.76 23.3333,4.14667 -5.08,3.90666 -10.1733,7.81333 -15.2533,11.73333 26.7333,-0.8 52.3467,9.48 77.92,17.32 69.2533,21.22667 142.4533,25.05333 214.7867,28.73333 6.1333,0.30667 12.44,0.6 18.2533,-1.37333 9.5733,-3.26667 16.2533,-12.28 19.36,-21.90667 7.24,-22.50666 -2.3734,-46.66666 -12.3334,-68.10666 -22.7466,-48.97333 -48.2666,-96.64 -76.3999,-142.73333 l -21.7467,-23.21334"
         style="fill:#3e6e6e;fill-opacity:1;fill-rule:nonzero;stroke:none;stroke-width:0.133333" />
      <path
         id="path56"
         d="m 2015.9303,308.6272 c -14.04,16.98667 -25.3067,36.25333 -33.2267,56.81333 35.5333,-42.56 71.7467,-85.74666 117.96,-116.36 -18.8533,21.04 -35.4933,44.06667 -49.56,68.57334 38.2267,-41.24 85.08,-74.42667 136.6667,-96.81334 -15.1334,14.32 -29,29.96 -41.4267,46.68 22.7867,-12.88 45.6133,-25.69333 68.48,-38.41333 20.04,-11.14667 40.9867,-22.49333 63.8667,-23.84 -20.3067,19.62667 -40.6134,39.25333 -60.92,58.88 51.72,-22.38667 106.2266,-45.24 162.3333,-39.94667 -24.6267,13.8 -48.68,28.6 -72.0933,44.36 50.9866,-9.53333 103.16,-12.76 154.9333,-9.57333 -37.9867,9.18667 -75.2267,21.4 -111.28,36.49333 50.8533,-3.53333 102.0533,-1.72 152.52,5.37334 -33.3333,9.56 -66.6667,19.12 -100,28.66666 46.8533,3.90667 93.7067,7.8 140.5733,11.69333 -50.92,10.44 -96.68,39.45334 -147.7866,48.96 -59.7867,11.10667 -120.88,-5.37333 -181.64,-7.85333 -64.24,-2.62667 -128.9467,11.18667 -186.9067,38.90667 -16.28,7.78666 -57.8,44.28 -74.8,39.30666 -19.8933,-5.82666 -16.12,-41.74666 -10.4667,-55.49333 14.6267,-35.62667 47.8667,-67.78666 72.7734,-96.41333"
         style="fill:#3e6e6e;fill-opacity:1;fill-rule:nonzero;stroke:none;stroke-width:0.133333" />
      <path
         id="path57"
         d="m 1856.117,89.813871 c -3.8667,8.346667 -6.0934,17.426669 -6.5067,26.613329 22.0666,-19.666662 50.5733,-31.973329 80.0266,-34.559995 -10.3333,12.173333 -17.9733,26.626665 -22.2133,42.013335 8.3067,-6.77334 17.8933,-11.94667 28.1067,-15.18667 -6.6,11.38667 -11.2934,23.86667 -13.8134,36.78667 11.84,-5.12 23.04,-11.73334 33.24,-19.65334 -14.7866,25.01334 -24.6266,52.93334 -28.8133,81.69333 17.5467,-23.02666 39.24,-48.23999 68.1867,-48.49333 -21.9734,32.53334 -44.5467,66.64 -49.6134,105.56 13.1067,-18.06667 29.0267,-34.06667 47.0267,-47.26667 -15.4667,21.74667 -27.16,46.18667 -34.36,71.88 12.72,-12.85333 25.4533,-25.70666 38.1733,-38.56 -15.0133,22.77334 -27.84,46.98667 -38.2133,72.21334 12.1067,-9.45334 22.3733,-21.25334 30.0533,-34.54667 -25.28,48.02667 -42.08,100.52 -49.3733,154.30666 -2.64,19.37334 -4.2,39.48 -13.2267,56.82667 -1.2666,2.42666 -2.9466,5 -5.6,5.65333 -5.12,1.26667 -8.6,-5.02667 -10.0133,-10.10667 -5.9867,-21.33333 -10.5867,-43.05333 -17.4933,-64.10666 -8.7067,-26.46667 -20.9733,-51.6 -33.2133,-76.64 -26.4,-54.02666 -55.1734,-107.50666 -79.44,-162.53333 -10.9734,-24.89333 2.7333,-39.61333 20.0533,-58.48 6.2,-6.76 56.76,-39.693329 57.0267,-43.413329"
         style="fill:#3e6e6e;fill-opacity:1;fill-rule:nonzero;stroke:none;stroke-width:0.133333" />
      <path
         id="path58"
         d="m 1774.517,392.5072 c 16,14.32 31.9866,28.65333 47.9733,42.97333 -48.2,-21.08 -98.4133,-37.53333 -149.7467,-49.06667 27.5067,15.69334 54.4,32.44 80.6,50.21334 -54.16,-15.22667 -109.7066,-25.56 -165.72,-30.81334 33.1734,15.18667 66.36,30.38667 99.5334,45.58667 -64.4934,-11.17333 -131,-10.66667 -195.32,1.50667 4.76,8.08 14.8266,11.01333 23.9333,13.25333 32.4533,8 64.92,16.01333 97.3867,24.01333 -69.8534,6.41333 -138.9067,21.50667 -205.0667,44.81333 39.6,3.6 79.3067,6.04 119.04,7.33334 -67.12,14.53333 -131.44,41.84 -188.5227,80.01333 40.7627,-7.10667 81.6694,-13.30667 122.7094,-18.6 -53.5867,21.8 -102.8534,54.13333 -144.184,94.61333 44.2373,-21.44 88.0906,-43.64 131.5573,-66.6 -42.44,22.70667 -78.36,57.41333 -102.5067,99.04 50.48,-39.36 100.9467,-78.73333 151.4134,-118.10667 -21.4667,24.09334 -38.24,52.34667 -49.1467,82.72 36.2133,-41.76 72.4267,-83.50666 108.64,-125.25333 -20.7333,37.26667 -41.48,74.54667 -62.2133,111.82667 38.1466,-46.34667 76.3066,-92.68 114.4666,-139.02667 -20.76,36.26667 -41.5066,72.53333 -62.2533,108.81333 22,-17.4 38.7733,-40.4 55.2533,-63.07999 18.3334,-25.24 36.6667,-50.46667 54.9867,-75.69334 -19.0667,37.62667 -38.1467,75.25334 -57.2267,112.88 33.1334,-50.44 71.0134,-97.76 112.96,-141.13333 -23.84,39.92 -47.68,79.85333 -71.52,119.78667 32.8934,-42.94667 66.08,-86.22667 106.9334,-121.68 -13.8267,29.02666 -30.92,56.48 -50.88,81.68 38.1733,-20.6 60.2266,-64.50667 99.6666,-82.54667 -17.8133,14.28 -33.32,31.44 -45.7466,50.58667 30.3466,-21.25334 63.12,-39.05334 97.4933,-52.90667 -23.7867,14.13333 -45.8667,31.16 -65.5867,50.58667 28.4934,-14.13334 57.6,-27 87.2134,-38.57334 -15.2,7.8 -28.2934,19.68 -37.5334,34.05334 6.84,-10.64 54.4533,-19.09334 66.92,-22.29334 -4.64,4.26667 -9.7733,8.08 -14.3867,12.34667 49.76,-8.09333 20.7867,-41.54667 -5.0533,-60.61333 -33.0933,-24.42667 -68.68,-45.48 -106.0666,-62.65333"
         style="fill:#448984;fill-opacity:1;fill-rule:nonzero;stroke:none;stroke-width:0.133333" />
      <path
         id="path59"
         d="m 2083.3703,1562.2138 c -4.4,-6.5066 -95.9867,-78.2666 -152.2,-224.4933 -49.3467,-128.4 -58.08,-292.1867 -64.16,-458.77332 -6.4267,-175.70666 33.4533,-385.39999 33.4533,-385.39999 l 43.6933,13.56 c 0,0 -34,154.62667 -18.36,348.32 12.44,154.08001 44.2,336.84001 107.9734,429.00001 48.8266,70.5733 181.7866,144.0266 181.7866,144.0266 0,0 -4.0133,56.7067 -47.4933,78.76 l -84.6933,55"
         style="fill:#95693f;fill-opacity:1;fill-rule:nonzero;stroke:none;stroke-width:0.133333" />
      <path
         id="path60"
         d="m 1981.8236,376.48053 c -7.88,18.37333 -12.8,38.01333 -14.5067,57.92 26.36,-40.73333 61.36,-75.86667 102,-102.38666 -12.7733,22.13333 -25.56,44.25333 -38.3333,66.38666 42.7333,-37.69333 88.16,-76.77333 143.9467,-88.37333 -19.3734,16 -36.8534,34.28 -51.9734,54.33333 47.6,-23.61333 100.4134,-36.65333 153.5334,-37.89333 -23.2934,6.93333 -45.6667,16.90666 -66.3734,29.6 58.7067,-7.09334 119.3467,-14.05334 176.0934,2.57333 -18.6934,-3.84 -38.32,-3.01333 -56.6267,2.4 47.68,1.33333 95.1333,10.26667 140.0267,26.37333 -29.6267,-0.10666 -59.2534,-0.21333 -88.8667,-0.32 59.7867,19.14667 121.32,39.24 168.9867,80.09334 -40.76,-7.54667 -80.48,-20.61334 -117.76,-38.73334 17.8933,16.46667 32.16,36.84 41.5066,59.28 -30.84,-23.85333 -64.2666,-44.32 -99.52,-60.94666 20.44,22.98666 37.52,48.95999 50.56,76.82666 -48.88,-34 -99.3333,-65.74666 -151.1466,-95.08 25.8533,21.12 48.6533,45.97334 67.4533,73.56 -45.24,-30.81333 -92.6933,-58.37333 -141.8667,-82.41333 32.6534,24.24 61.8267,53.17333 86.3067,85.64 -57.8,-29.18667 -118.6,-52.44 -181.1333,-69.25333 40.3733,17.45333 78.3733,40.37333 112.6533,67.93333 -49.7067,-17.68 -99.8533,-34.08 -150.4,-49.21333 32.6267,15.12 65.4133,30.34666 95.0267,50.73333 -46.04,-14.56 -92.8134,-26.8 -140.0934,-36.66667 31.48,14.50667 61.9467,31.21333 90.96,50.16 -48.0266,-17.65333 -97.8666,-30.34666 -148.48,-37.78666 30.8534,10 60.6534,23.26666 88.72,39.51999 -37.7066,-2.69333 -75.6,-2.96 -113.3466,-0.78666 17.3866,3.53333 34.7733,7.05333 52.1733,10.58666 -28.44,4.37334 -94,29.22667 -83.8533,-25.24 3.72,-19.93333 19.8266,-39.98666 31.1866,-56.27999 11.44,-16.4 35.56,-34.85334 43.1467,-52.54667"
         style="fill:#448984;fill-opacity:1;fill-rule:nonzero;stroke:none;stroke-width:0.133333" />
      <path
         id="path61"
         d="m 1874.6769,449.7872 c -47.6266,-66.53334 -105.0666,-126.01333 -169.8933,-175.93333 2.48,7.61333 4.96,15.22666 7.4267,22.84 -27.04,-17.78667 -54.92,-34.29334 -83.52,-49.45334 6.2533,7.28 12.52,14.54667 18.7733,21.81334 -34.4533,-20.50667 -71.2666,-37 -109.5066,-49.06667 14.5066,9.26667 29,18.53333 43.5066,27.8 -46.1466,-6.84 -92.8533,-9.94667 -139.5066,-9.29333 12.5733,7.02666 25.1333,14.05333 37.6933,21.08 -27.16,3.56 -53.84,10.84 -79.04,21.57333 30.4933,2.10667 60.7467,7.84 89.8933,17.05333 -21.2266,9.82667 -40.8266,23.14667 -57.7866,39.25334 37.2266,0.33333 74.4666,-0.54667 111.64,-2.64 -14.76,9.91999 -29.5334,19.85333 -44.2934,29.77333 58.9334,0.0133 116.4534,-34.77333 174.0934,-22.46667 -23.6134,9.90667 -45.8134,23.2 -65.7067,39.33333 40.9733,-14.48 84.1467,-22.72 127.5733,-24.34666 -25.3333,7.4 -48.8266,21.02666 -67.8266,39.33333 32.9866,-10.97333 67.56,-17.17333 102.32,-18.33333 -30.7334,13.34666 -59.24,31.78666 -84.04,54.32 33.3066,-10.93334 67.2933,-21.98667 102.3466,-21.96 41.16,0.0267 82.1067,16.10666 112.2933,44.09333 1.6934,1.56 3.48,3.98667 2.2667,5.94667 -1.2267,1.96 -4.68,-1.72 -2.3867,-1.96 l -26.32,-8.76"
         style="fill:#448984;fill-opacity:1;fill-rule:nonzero;stroke:none;stroke-width:0.133333" />
      <path
         id="path62"
         d="m 1912.4769,495.12053 c -31.7866,-24.72 -60.7199,-53.09333 -86.0399,-84.4 23.24,13.70667 46.4933,27.41333 69.7333,41.10667 -57.8,-33.96 -99.2933,-89.33334 -138.88,-143.44 33.2267,29.85333 67.8,58.2 103.5867,84.93333 -44.24,-43.21333 -83.8667,-91.17333 -117.9467,-142.77333 28.0267,24.02667 56.0533,48.04 84.08,72.06667 -35.6933,-37.62667 -69.72,-76.84 -101.9467,-117.49333 24.4267,16.55999 48.0134,34.37333 70.6267,53.33333 -34.6,-36.57334 -67.2533,-74.97333 -97.7733,-115 17.9066,15.38667 36.84,29.57333 56.6533,42.41333 -20.76,-24.73333 -41.5333,-49.46666 -62.2933,-74.21333 25.2666,15.21333 49.8533,31.54667 73.6666,48.96 -19.96,-29.41333 -41.6666,-57.65333 -64.9733,-84.493332 30.5067,27.386662 57.4533,58.733332 79.9467,93.013332 -7.8667,-24.10667 -12.2134,-49.34667 -12.88,-74.679999 12.08,37.426669 24.1733,74.866669 36.2533,112.293329 -0.9467,-24.02666 2.2267,-48.21333 9.32,-71.18666 5.68,41.18666 11.36,82.37333 17.04,123.57333 1.7067,-31.09334 6.36,-67.28 33.2133,-83.04 -13.48,38.54666 -21.3066,79.08 -23.1333,119.86666 11.1467,-26.32 25.9467,-51.10666 43.84,-73.41333 -13.4533,37.70667 -24.3467,76.33333 -32.5867,115.52 10.0134,-21.85333 24.4133,-41.66667 42.0933,-57.93333 -12.5066,28.88 -20.44,59.73333 -23.4133,91.06666 9.3067,-16.72 21.5733,-31.78667 36.04,-44.32 -10.48,25.37333 -19.3333,51.41333 -26.4933,77.90667 12.88,-15.69334 25.7733,-31.37334 38.6666,-47.06667 -6.76,26.24 -13.52,52.48 -20.2933,78.72 13.32,-19.14667 27.28,-38.89333 47.4133,-50.68 -9.5333,20.16 -19.1466,40.54667 -23.7866,62.36 -4.64,21.81333 -3.8934,45.52 6.5733,65.21333 l -16.3067,-18.21333"
         style="fill:#3fad9e;fill-opacity:1;fill-rule:nonzero;stroke:none;stroke-width:0.133333" />
      <path
         id="path63"
         d="m 1965.2769,496.34719 c 45.1467,-5.77333 90.96,-6.33333 136.2267,-1.64 82.3067,8.53334 163.8,35.12 230.4667,84.14667 66.6666,49.02666 117.52,121.57333 132.6133,202.93333 -17.8,-31.93334 -37.0267,-63.08 -57.6267,-93.28 10.04,32.41333 17.1867,65.72 21.3067,99.41333 -15.68,-48.90666 -34.0267,-96.94666 -54.9467,-143.85333 3.4667,51.06667 13.3334,101.69333 29.3734,150.29333 -18.7067,-20.89333 -28.12,-48.28 -36.8534,-74.92 -11.0666,-33.73333 -21.76,-67.58666 -32.0933,-101.54666 -3.24,53.44 1.4133,107.36 13.7733,159.46666 -12.04,-17.42667 -15.2,-39.26666 -18.6133,-60.17333 -6.6533,-40.58667 -15.5333,-80.8 -26.6133,-120.41333 -11.88,58.30666 -5.7867,118.58666 0.3466,177.77333 -32.9066,-62.76 -40,-135.78667 -40.1333,-206.65333 -13.5067,64.06666 -18.12,130 -13.6533,195.31999 -27.1467,-67.83999 -17.9867,-146.79999 -49.44,-212.74666 4.1866,52.96 5.8533,106.12 5,159.25333 -15.0934,-32.8 -18.6267,-69.49333 -26.7867,-104.65333 -5.3867,-23.2 -12.84,-45.92 -22.2667,-67.8 4.6,34.16 11.6267,67.98667 21,101.14667 -33.9733,-33.13333 -44.9733,-85.13333 -80.4933,-116.62667 22.0533,38.08 37.48,79.97334 45.4,123.24 -24.8533,-45.26666 -51.84,-89.36 -80.84,-132.09333 18.0533,32.05333 30.88,67.05333 37.8133,103.18666 -28.1333,-36.61333 -59.0266,-71.09333 -92.3333,-103.06666 15.1067,20 30.2267,40 45.3333,60 -26.96,-22.6 -55.7466,-46.05333 -90.4666,-51.64 -2.64,-0.42667 -9.7734,-0.0133 -18.2534,0.38667 -17.9066,0.85333 -41.7333,1.70666 -41.5466,-5.24 0.36,-12.69334 54.7466,-18.98667 64.3066,-20.21334"
         style="fill:#3fad9f;fill-opacity:1;fill-rule:nonzero;stroke:none;stroke-width:0.133333" />
      <path
         id="path64"
         d="m 1952.2903,532.68053 -23.2534,-15.18667 c -22.6133,-7.70667 -49.24,-0.56 -65.8399,16.62667 -16.5867,17.17333 -22.8667,43.30666 -17.0534,66.46666 5.8134,23.17333 23.12,42.89333 44.84,52.84 2.4533,1.12 5.28,2.13333 7.8,1.14667 2,-0.78667 3.32,-2.65334 4.8,-4.22667 8.08,-8.64 21.4933,-8.74667 32.5733,-12.89333 18.96,-7.12 31.0934,-27.18667 32.7067,-47.38667 1.6267,-20.18666 -5.8133,-40.22666 -16.5733,-57.38666"
         style="fill:#4f3522;fill-opacity:1;fill-rule:nonzero;stroke:none;stroke-width:0.133333" />
      <path
         id="path65"
         d="m 1990.3169,508.25386 -22.36,16.45333 c -15.1466,18.48 -17.7866,45.92 -7.5066,67.48 10.28,21.56 32.56,36.58667 56.2933,39.26667 23.7333,2.66666 48.2667,-6.62667 65.1867,-23.48 1.92,-1.92 3.8533,-4.2 3.8133,-6.90667 -0.027,-2.14666 -1.32,-4.05333 -2.28,-5.98666 -5.2533,-10.6 -0.6533,-23.18667 -0.6667,-35.01334 -0.013,-20.26666 -14.5733,-38.65333 -32.9066,-47.24 -18.3467,-8.6 -39.72,-8.65333 -59.5734,-4.57333"
         style="fill:#4f3522;fill-opacity:1;fill-rule:nonzero;stroke:none;stroke-width:0.133333" />
      <path
         id="path66"
         d="m 1902.9569,557.05386 c -3.64,15.09333 -3.3866,32.98667 7.76,43.8 7.48,7.24 18.2267,9.70666 28.4134,11.89333 16.7066,3.57333 33.4266,7.14667 50.1333,10.72 1.4,0.30667 2.8267,0.6 4.24,0.36 2.28,-0.4 4.0667,-2.13333 5.64,-3.84 14.5467,-15.77333 23.9867,-36.18666 26.5733,-57.49333 1.32,-10.81333 0.8534,-22.09333 -3.4666,-32.09333 -5.6267,-12.97334 -17.44,-22.68 -30.72,-27.54667 -42.1334,-15.48 -78.72,13.25333 -88.5734,54.2"
         style="fill:#755032;fill-opacity:1;fill-rule:nonzero;stroke:none;stroke-width:0.133333" />
      <path
         id="path67"
         style="fill:#3fad9e;fill-opacity:1;fill-rule:nonzero;stroke:none;stroke-width:0.133333"
         d="m 1911.864,494.63066 c -6.0055,0.1648 -13.5599,1.19227 -22.5332,2.90227 -66.1066,12.61333 -130.8405,28.34786 -193.707,47.1212 34.7466,1.8 69.5056,3.6004 104.2656,5.4004 -69.9866,19.70653 -133.453,50.4392 -185.5195,89.81239 45.3599,-16.61333 92.1331,-31.2672 140.0664,-43.86719 -53.8267,19.33333 -106.1601,40.74786 -156.7735,64.12119 37.2,-12.41333 74.3879,-24.82693 111.5879,-37.24026 -53.3199,26.50666 -105.0544,54.72026 -155.0411,84.5468 37.12,-18.55987 75.7334,-35.5204 115.6134,-50.78707 -71.2266,34.08 -137.9188,73.17413 -199.0254,116.72066 44.6399,-24.8532 89.572,-49.82653 140.0254,-67.91986 -65.8266,43.56 -129.2251,89.17346 -190.0118,136.69333 l 123,-78.32027 c -56.9462,41.96494 -114.3948,84.4488 -157.5332,135.06053 1.3991,0.26974 2.8286,0.2804 4.2207,0.59374 43.1956,-35.27 87.5748,-70.0144 140.8048,-96.45507 -34.7867,30.13334 -69.8932,60.64067 -93.8399,96.64067 28.44,-29.17333 60.4927,-56.2144 95.666,-80.7344 -5.2364,34.77227 -41.5688,62.98893 -39.6016,98.3672 0.1234,0.0253 0.2459,0.0545 0.3692,0.08 l 78.6738,-112.79293 c -16.3332,28.25333 -27.8542,58.3464 -34.1875,89.37306 25.0933,-47.88 55.2663,-93.97253 90.1328,-137.7324 -5.0533,23.65334 -10.1064,47.3056 -15.1464,70.95894 -1.4933,7.04 -2.68,15.06613 3.3867,21.0528 17.48,-44.33334 34.9594,-88.6788 52.4394,-133.02547 -13.76,32.97333 -19.2652,68.37333 -16.1718,103.92 14.8133,-45.38667 29.6397,-90.7732 44.453,-136.14653 -10.44,36.8 -18.0269,74.24013 -22.7069,112.08013 26.5065,-43.17333 43.7075,-89.69346 60.8007,-136 -9.0932,31.75987 -14.801,64.26614 -17.041,97.1328 l 63.4804,-139.43946 c -6.2,32.32 -12.3996,64.63933 -18.5996,96.97266 28.5734,-47.22666 50.9726,-96.89413 66.8126,-148.10746 -3.0534,32.21333 -12.9195,63.37346 -22.7462,94.38666 25.2267,-30.4932 42.9188,-64.81293 52.0255,-100.90613 -3.7733,22.31987 -9.4391,44.33387 -16.9591,65.86707 20.3067,-29.10653 38.4661,-59.14627 54.3595,-89.98627 l -23.8399,57.4004 c 15.8267,-23.65333 31.6268,-47.2936 47.4668,-70.9336 13.42,-20.02 9.3503,-27.30493 -8.666,-26.81053 z" />
      <path
         id="path68"
         d="m 1941.1969,571.74719 c -1.3333,0 -2.6533,-0.24 -3.8933,-0.73333 -7.28,-2.92 -9.1867,-12.28 -9.0533,-20.12 0.1466,-8.29333 1.5066,-16.8 5.8666,-23.84 3.6667,-5.89333 11.2934,-12.21333 18.7067,-12.21333 0.1333,0 0.2667,0 0.4133,0.0133 5.1867,0.16 18.2134,6.61333 18.7734,12.28 0.1466,1.38667 -0.56,2.72 -1.36,3.85333 -4.3467,6.18667 -12.2,9.65334 -15.32,16.54667 -2.8667,6.4 -1.0667,14.6 -5.4,20.10667 -2.0667,2.62666 -5.4134,4.10666 -8.7334,4.10666"
         style="fill:#8f7159;fill-opacity:1;fill-rule:nonzero;stroke:none;stroke-width:0.133333" />
      <path
         id="path69"
         d="m 1901.8903,934.10718 c -1.0534,0.2 -2.0934,0.52 -3.1067,1 1.0667,-0.24 2.1067,-0.58666 3.1067,-1"
         style="fill:#7f5737;fill-opacity:1;fill-rule:nonzero;stroke:none;stroke-width:0.133333" />
      <path
         id="path70"
         d="m 2033.7703,1284.4272 c -63.7734,-92.16 -95.5334,-274.92 -107.9734,-429.00001 -6.9466,-86.10667 -4.0933,-164.46667 1.2267,-224.97333 -2.12,-0.10667 -4.12,0.17333 -5.8667,0.94666 -0.6666,0.30667 -22.0266,45.69334 -22.2666,45.4 10.0533,12.84 13.16,30.82667 8,46.29334 -4.2934,12.89333 -13.3867,28.31999 -4.1067,38.22666 1.9067,2.02667 4.4267,3.48 6.0667,5.72 2.4133,3.29333 2.5466,7.65333 2.6933,11.73333 0.9067,24.86667 5.7333,49.65334 4.0533,74.48 -1.68,24.82667 -11.3466,50.93333 -32.4266,64.16 10.68,-1.54667 21.3733,-3.09333 32.0533,-4.64 0.76,8.96 -5.08,17.94667 -13.3333,21.33333 6.68,-1.25333 14.0533,2.74667 18.0666,8.52 4.6534,6.69334 5.9067,15.10667 7.0267,23.17334 2.3733,17.06666 4.7467,34.42668 2.1067,51.45328 -2.64,17.04 -11.08,34 -25.8534,42.8534 9.8134,7.08 26.32,-11.12 33.88,-1.68 4.1467,5.1866 -0.3733,12.6266 -4.7466,17.6 4.5866,0.8666 9.1733,1.72 13.7733,2.5866 -9.6133,16.2134 -20.7733,31.52 -33.3067,45.6 5.1334,3.6667 12.2534,1.4267 17.9867,-1.1866 5.7467,-2.6267 12.3467,-5.5334 18.0667,-2.88 5.72,2.6533 5.3866,13.7866 -0.9067,13.36 12.8533,4.08 15.64,21.4933 11.9333,34.4533 -3.7066,12.96 -11.52,25.0667 -11.4133,38.5467 7.1333,-0.7467 14.28,-1.4934 21.4267,-2.24 -1.4534,16.44 -5.5467,32.64 -12.0534,47.7866 4.5467,1.56 9.44,-0.5733 13.9334,-2.28 4.4933,-1.7066 10,-2.8933 13.7733,0.093 3.7733,2.9866 1.4933,11.12 -3.12,9.7866 10.24,9.7067 20.4933,19.4267 30.7333,29.1334 3.6934,3.5066 7.5067,7.1866 9.2667,11.9733 7.8933,21.4667 -29.6933,40.8 -20.92,61.9333 14.2933,-10.24 28.5733,-20.4933 42.8667,-30.7466 0.4933,8.3466 1,16.68 1.4933,25.0266 5.0133,-6.8266 18.0267,-3.8 19.4933,4.5334 4.2667,-0.48 8.5334,-0.96 12.8,-1.44 -10.08,20.48 -20.16,40.96 -30.24,61.4266 14.2134,-10.56 28.7067,-20.7333 43.4667,-30.52 -4.5867,21.68 -12.32,42.6934 -22.9067,62.1467 25.4667,-2.3067 39.7734,-39.1467 65.1734,-36.2133 0.9866,7.6666 -1.0934,15.68 -5.6934,21.9066 4.72,-3.52 9.44,-7.0533 14.16,-10.5866 2.7467,7.2933 13.9734,9.3733 19.1467,3.5333 0.44,6.2133 0.8933,12.4267 1.3333,18.64 0.12,1.6667 0.3467,3.5467 1.68,4.5733 1.6534,1.2534 4,0.52 5.92,-0.28 15.12,-6.2266 30.5734,-12.6666 42.7067,-23.64 0.8933,-0.8133 1.76,-1.6533 2.6133,-2.52 v -0.08 c 0,0 -132.96,-73.4533 -181.7866,-144.0266"
         style="fill:#7f5737;fill-opacity:1;fill-rule:nonzero;stroke:none;stroke-width:0.133333" />
      <path
         id="path55-9"
         d="m 3082.568,225.2094 c -56.44,-47.01333 -123.0667,-81.70666 -193.9334,-100.98666 9.2534,13.32 23.4134,22.24 37.1867,30.8 -19.16,-1.10667 -38.32,-2.2 -57.4933,-3.30667 16.9733,7.77334 32.96,17.70667 47.4533,29.48 -31.6133,-5.4 -64.0267,-6.08 -95.8267,-2 9.52,5.50667 18.4267,12.09334 26.48,19.58667 -13.5466,-1.2 -27.4666,2.54667 -38.56,10.38667 5.64,3.32 10.28,8.34666 13.12,14.24 -3.56,0.71999 -7.1466,1.43999 -10.72,2.14666 13.3867,27.52 43.8934,41.34667 71.4934,54.56 39.64,18.98667 77.8266,40.98667 114.12,65.77333 -51.44,11.44 -101.2534,30.12 -147.5334,55.32 10.3067,2.05333 20.8934,2.72 31.3734,1.97333 -9.0534,4.72 -17.4934,10.58667 -25.08,17.42667 7.7733,1.37333 15.56,2.76 23.3333,4.14667 -5.08,3.90666 -10.1733,7.81333 -15.2533,11.73333 26.7333,-0.8 52.3466,9.48 77.92,17.32 69.2533,21.22667 142.4533,25.05333 214.7866,28.73333 6.1334,0.30667 12.44,0.6 18.2534,-1.37333 9.5733,-3.26667 16.2533,-12.28 19.36,-21.90667 7.24,-22.50666 -2.3734,-46.66666 -12.3334,-68.10666 -22.7466,-48.97333 -48.2666,-96.64 -76.4,-142.73333 L 3082.568,225.2094"
         style="fill:#566e3e;fill-opacity:1;fill-rule:nonzero;stroke:none;stroke-width:0.133333" />
      <path
         id="path56-0"
         d="m 3319.6479,319.79607 c -14.0399,16.98667 -25.3066,36.25333 -33.2266,56.81333 35.5333,-42.56 71.7466,-85.74666 117.96,-116.36 -18.8534,21.04 -35.4934,44.06667 -49.56,68.57334 38.2266,-41.24 85.08,-74.42667 136.6666,-96.81334 -15.1333,14.32 -29,29.96 -41.4266,46.68 22.7866,-12.88 45.6133,-25.69333 68.48,-38.41333 20.04,-11.14667 40.9866,-22.49333 63.8666,-23.84 -20.3066,19.62667 -40.6133,39.25333 -60.92,58.88 51.72,-22.38667 106.2267,-45.24 162.3334,-39.94667 -24.6267,13.8 -48.68,28.6 -72.0934,44.36 50.9867,-9.53333 103.16,-12.76 154.9334,-9.57333 -37.9867,9.18667 -75.2267,21.4 -111.28,36.49333 50.8533,-3.53333 102.0533,-1.72 152.52,5.37334 -33.3334,9.56 -66.6667,19.12 -100,28.66666 46.8533,3.90667 93.7066,7.8 140.5733,11.69334 -50.92,10.43999 -96.68,39.45333 -147.7867,48.95999 -59.7866,11.10667 -120.88,-5.37333 -181.64,-7.85333 -64.24,-2.62667 -128.9466,11.18667 -186.9066,38.90667 -16.28,7.78666 -57.8,44.28 -74.8,39.30666 -19.8933,-5.82666 -16.12,-41.74666 -10.4667,-55.49333 14.6267,-35.62667 47.8667,-67.78666 72.7733,-96.41333"
         style="fill:#566e3e;fill-opacity:1;fill-rule:nonzero;stroke:none;stroke-width:0.133333" />
      <path
         id="path57-5"
         d="m 3159.8346,100.98274 c -3.8666,8.34667 -6.0933,17.42667 -6.5066,26.61333 22.0666,-19.66666 50.5733,-31.973328 80.0266,-34.559998 -10.3333,12.173338 -17.9733,26.626668 -22.2133,42.013338 8.3067,-6.77334 17.8933,-11.94667 28.1067,-15.18667 -6.6,11.38667 -11.2934,23.86667 -13.8134,36.78667 11.84,-5.12 23.04,-11.73334 33.24,-19.65334 -14.7866,25.01334 -24.6266,52.93334 -28.8133,81.69334 17.5467,-23.02667 39.24,-48.24 68.1867,-48.49334 -21.9734,32.53334 -44.5467,66.64 -49.6134,105.56 13.1067,-18.06667 29.0267,-34.06667 47.0267,-47.26667 -15.4667,21.74667 -27.16,46.18667 -34.36,71.88 12.72,-12.85333 25.4533,-25.70666 38.1733,-38.56 -15.0133,22.77334 -27.84,46.98667 -38.2133,72.21334 12.1067,-9.45334 22.3733,-21.25334 30.0533,-34.54667 -25.28,48.02667 -42.08,100.52 -49.3733,154.30666 -2.64,19.37334 -4.2,39.48 -13.2267,56.82667 -1.2666,2.42666 -2.9466,5 -5.6,5.65333 -5.12,1.26667 -8.6,-5.02667 -10.0133,-10.10667 -5.9867,-21.33333 -10.5867,-43.05333 -17.4933,-64.10666 -8.7067,-26.46667 -20.9734,-51.6 -33.2134,-76.64 -26.4,-54.02666 -55.1733,-107.50666 -79.44,-162.53333 -10.9733,-24.89333 2.7334,-39.61333 20.0534,-58.48 6.2,-6.76 56.76,-39.69333 57.0266,-43.41333"
         style="fill:#566e3e;fill-opacity:1;fill-rule:nonzero;stroke:none;stroke-width:0.133333" />
      <path
         id="path58-6"
         d="m 3078.2346,403.67607 c 16,14.32 31.9867,28.65333 47.9734,42.97333 -48.2,-21.08 -98.4134,-37.53333 -149.7467,-49.06667 27.5067,15.69334 54.4,32.44 80.6,50.21334 -54.16,-15.22667 -109.7067,-25.56 -165.72,-30.81334 33.1733,15.18667 66.36,30.38667 99.5333,45.58667 -64.4933,-11.17333 -131,-10.66667 -195.32,1.50667 4.76,8.08 14.8267,11.01333 23.9334,13.25333 32.4533,8 64.92,16.01333 97.3866,24.01333 -69.8533,6.41333 -138.9066,21.50667 -205.0666,44.81333 39.6,3.6 79.3066,6.04 119.04,7.33334 -67.12,14.53333 -131.44,41.84 -188.5227,80.01333 40.7627,-7.10667 81.6693,-13.30667 122.7093,-18.6 -53.5866,21.8 -102.8533,54.13333 -144.184,94.61333 44.2374,-21.44 88.0907,-43.64 131.5574,-66.6 -42.44,22.70667 -78.36,57.41333 -102.5067,99.04 50.48,-39.36 100.9467,-78.73333 151.4133,-118.10667 -21.4666,24.09334 -38.24,52.34667 -49.1466,82.72 36.2133,-41.76 72.4266,-83.50666 108.64,-125.25333 -20.7334,37.26667 -41.48,74.54667 -62.2134,111.82667 38.1467,-46.34667 76.3067,-92.68 114.4667,-139.02667 -20.76,36.26667 -41.5067,72.53333 -62.2533,108.81333 22,-17.4 38.7733,-40.39999 55.2533,-63.07999 18.3333,-25.24 36.6667,-50.46667 54.9867,-75.69334 -19.0667,37.62667 -38.1467,75.25334 -57.2267,112.88 33.1333,-50.44 71.0133,-97.76 112.96,-141.13333 -23.84,39.92 -47.68,79.85333 -71.52,119.78667 32.8933,-42.94667 66.08,-86.22667 106.9333,-121.68 -13.8266,29.02666 -30.92,56.48 -50.88,81.68 38.1734,-20.6 60.2267,-64.50667 99.6667,-82.54667 -17.8133,14.28 -33.32,31.44 -45.7467,50.58667 30.3467,-21.25334 63.12,-39.05334 97.4934,-52.90667 -23.7867,14.13333 -45.8667,31.16 -65.5867,50.58667 28.4933,-14.13334 57.6,-27 87.2133,-38.57334 -15.2,7.8 -28.2933,19.68 -37.5333,34.05334 6.84,-10.64 54.4533,-19.09334 66.92,-22.29334 -4.64,4.26667 -9.7733,8.08 -14.3867,12.34667 49.76,-8.09333 20.7867,-41.54666 -5.0533,-60.61333 -33.0933,-24.42667 -68.68,-45.48 -106.0667,-62.65333"
         style="fill:#668944;fill-opacity:1;fill-rule:nonzero;stroke:none;stroke-width:0.133333" />
      <path
         id="path59-3"
         d="m 3387.0879,1573.3827 c -4.4,-6.5067 -95.9866,-78.2667 -152.1999,-224.4933 -49.3467,-128.4 -58.08,-292.1867 -64.16,-458.77339 -6.4267,-175.70662 33.4533,-385.39995 33.4533,-385.39995 l 43.6933,13.56 c 0,0 -34,154.62667 -18.36,348.31995 12.44,154.07999 44.2,336.83999 107.9733,428.99999 48.8267,70.5734 181.7867,144.0267 181.7867,144.0267 0,0 -4.0133,56.7067 -47.4933,78.76 l -84.6934,55"
         style="fill:#95693f;fill-opacity:1;fill-rule:nonzero;stroke:none;stroke-width:0.133333" />
      <path
         id="path60-6"
         d="m 3285.5413,387.6494 c -7.88,18.37333 -12.8,38.01333 -14.5067,57.92 26.36,-40.73333 61.36,-75.86667 102,-102.38666 -12.7733,22.13333 -25.56,44.25333 -38.3333,66.38666 42.7333,-37.69333 88.16,-76.77333 143.9466,-88.37333 -19.3733,16 -36.8533,34.28 -51.9733,54.33333 47.6,-23.61333 100.4133,-36.65333 153.5333,-37.89333 -23.2933,6.93333 -45.6666,16.90667 -66.3733,29.6 58.7067,-7.09334 119.3467,-14.05333 176.0933,2.57333 -18.6933,-3.84 -38.32,-3.01333 -56.6266,2.4 47.68,1.33333 95.1333,10.26667 140.0266,26.37333 -29.6266,-0.10666 -59.2533,-0.21333 -88.8666,-0.32 59.7866,19.14667 121.32,39.24 168.9866,80.09334 -40.76,-7.54667 -80.48,-20.61334 -117.76,-38.73334 17.8934,16.46667 32.16,36.84 41.5067,59.28 -30.84,-23.85333 -64.2667,-44.32 -99.52,-60.94666 20.44,22.98666 37.52,48.96 50.56,76.82666 -48.88,-34 -99.3333,-65.74666 -151.1467,-95.08 25.8534,21.12 48.6534,45.97334 67.4534,73.56 -45.24,-30.81333 -92.6934,-58.37333 -141.8667,-82.41333 32.6533,24.24 61.8267,53.17333 86.3067,85.64 -57.8,-29.18667 -118.6,-52.44 -181.1334,-69.25333 40.3734,17.45333 78.3734,40.37333 112.6534,67.93333 -49.7067,-17.68 -99.8534,-34.08 -150.4,-49.21333 32.6266,15.12 65.4133,30.34666 95.0266,50.73333 -46.04,-14.56 -92.8133,-26.8 -140.0933,-36.66667 31.48,14.50667 61.9467,31.21333 90.96,50.16 -48.0267,-17.65333 -97.8667,-30.34666 -148.48,-37.78666 30.8534,10 60.6533,23.26666 88.72,39.51999 -37.7067,-2.69333 -75.6,-2.96 -113.3466,-0.78666 17.3866,3.53333 34.7733,7.05333 52.1733,10.58666 -28.44,4.37334 -94,29.22667 -83.8533,-25.24 3.72,-19.93333 19.8266,-39.98666 31.1866,-56.27999 11.44,-16.4 35.56,-34.85334 43.1467,-52.54667"
         style="fill:#668944;fill-opacity:1;fill-rule:nonzero;stroke:none;stroke-width:0.133333" />
      <path
         id="path61-3"
         d="M 3178.3946,460.95607 C 3130.768,394.42273 3073.328,334.94274 3008.5013,285.02274 c 2.48,7.61333 4.96,15.22666 7.4267,22.84 -27.04,-17.78667 -54.92,-34.29334 -83.52,-49.45334 6.2533,7.28 12.52,14.54667 18.7733,21.81334 -34.4533,-20.50667 -71.2667,-37 -109.5067,-49.06667 14.5067,9.26667 29,18.53333 43.5067,27.8 -46.1467,-6.84 -92.8533,-9.94667 -139.5067,-9.29333 12.5734,7.02666 25.1334,14.05333 37.6934,21.08 -27.16,3.56 -53.84,10.84 -79.04,21.57333 30.4933,2.10667 60.7466,7.84 89.8933,17.05333 -21.2267,9.82667 -40.8267,23.14667 -57.7867,39.25334 37.2267,0.33333 74.4667,-0.54667 111.64,-2.64 -14.76,9.92 -29.5333,19.85333 -44.2933,29.77333 58.9333,0.0133 116.4533,-34.77333 174.0933,-22.46667 -23.6133,9.90667 -45.8133,23.2 -65.7066,39.33333 40.9733,-14.48 84.1466,-22.72 127.5733,-24.34666 -25.3333,7.4 -48.8267,21.02666 -67.8267,39.33333 32.9867,-10.97333 67.56,-17.17333 102.32,-18.33333 -30.7333,13.34666 -59.24,31.78666 -84.04,54.32 33.3067,-10.93334 67.2934,-21.98667 102.3467,-21.96 41.16,0.0267 82.1067,16.10666 112.2933,44.09333 1.6934,1.56 3.48,3.98667 2.2667,5.94667 -1.2267,1.96 -4.68,-1.72 -2.3867,-1.96 l -26.32,-8.76"
         style="fill:#668944;fill-opacity:1;fill-rule:nonzero;stroke:none;stroke-width:0.133333" />
      <path
         id="path62-0"
         d="m 3216.1946,506.2894 c -31.7866,-24.72 -60.72,-53.09333 -86.04,-84.4 23.24,13.70667 46.4934,27.41333 69.7334,41.10667 -57.8,-33.96 -99.2934,-89.33334 -138.88,-143.44 33.2266,29.85333 67.8,58.2 103.5866,84.93333 -44.24,-43.21333 -83.8666,-91.17333 -117.9466,-142.77333 28.0266,24.02667 56.0533,48.04 84.08,72.06667 -35.6934,-37.62667 -69.72,-76.84 -101.9467,-117.49333 24.4267,16.55999 48.0133,34.37333 70.6267,53.33333 -34.6,-36.57334 -67.2534,-74.97333 -97.7734,-115 17.9067,15.38667 36.84,29.57333 56.6534,42.41333 -20.76,-24.73333 -41.5334,-49.46666 -62.2934,-74.21333 25.2667,15.21333 49.8534,31.54667 73.6667,48.96 -19.96,-29.41333 -41.6667,-57.65333 -64.9733,-84.493328 30.5066,27.386658 57.4533,58.733328 79.9466,93.013328 -7.8666,-24.10667 -12.2133,-49.34667 -12.88,-74.68 12.08,37.42667 24.1734,74.86667 36.2534,112.29333 -0.9467,-24.02666 2.2266,-48.21333 9.32,-71.18666 5.68,41.18666 11.36,82.37333 17.04,123.57333 1.7066,-31.09334 6.36,-67.28 33.2133,-83.04 -13.48,38.54666 -21.3067,79.08 -23.1333,119.86666 11.1466,-26.32 25.9466,-51.10666 43.84,-73.41333 -13.4534,37.70667 -24.3467,76.33333 -32.5867,115.52 10.0133,-21.85333 24.4133,-41.66667 42.0933,-57.93333 -12.5066,28.88 -20.44,59.73333 -23.4133,91.06666 9.3067,-16.72 21.5733,-31.78666 36.04,-44.32 -10.48,25.37333 -19.3333,51.41333 -26.4933,77.90667 12.88,-15.69334 25.7733,-31.37334 38.6666,-47.06667 -6.76,26.24 -13.52,52.48 -20.2933,78.72 13.32,-19.14667 27.28,-38.89333 47.4133,-50.68 -9.5333,20.16 -19.1466,40.54667 -23.7866,62.36 -4.64,21.81333 -3.8934,45.52 6.5733,65.21333 l -16.3067,-18.21333"
         style="fill:#93ad3f;fill-opacity:1;fill-rule:nonzero;stroke:none;stroke-width:0.133333" />
      <path
         id="path63-8"
         d="m 3268.9946,507.51606 c 45.1467,-5.77333 90.96,-6.33333 136.2267,-1.64 82.3066,8.53334 163.8,35.12 230.4666,84.14667 66.6667,49.02666 117.52,121.57333 132.6134,202.93333 -17.8,-31.93334 -37.0267,-63.08 -57.6267,-93.28 10.04,32.41333 17.1867,65.72 21.3067,99.41333 -15.68,-48.90666 -34.0267,-96.94666 -54.9467,-143.85333 3.4667,51.06667 13.3333,101.69333 29.3733,150.29333 -18.7066,-20.89333 -28.12,-48.28 -36.8533,-74.92 -11.0667,-33.73333 -21.76,-67.58666 -32.0933,-101.54666 -3.24,53.44 1.4133,107.36 13.7733,159.46666 -12.04,-17.42667 -15.2,-39.26666 -18.6133,-60.17333 -6.6534,-40.58667 -15.5334,-80.8 -26.6134,-120.41333 -11.88,58.30666 -5.7866,118.58666 0.3467,177.77333 -32.9067,-62.76 -40,-135.78667 -40.1333,-206.65333 -13.5067,64.06666 -18.12,130 -13.6534,195.31999 -27.1466,-67.83999 -17.9866,-146.79999 -49.44,-212.74666 4.1867,52.96 5.8534,106.12 5,159.25333 -15.0933,-32.8 -18.6266,-69.49333 -26.7866,-104.65333 -5.3867,-23.2 -12.84,-45.92 -22.2667,-67.8 4.6,34.16 11.6267,67.98667 21,101.14667 -33.9733,-33.13333 -44.9733,-85.13333 -80.4933,-116.62667 22.0533,38.08 37.48,79.97334 45.4,123.24 -24.8534,-45.26666 -51.84,-89.36 -80.84,-132.09333 18.0533,32.05333 30.88,67.05333 37.8133,103.18666 -28.1333,-36.61333 -59.0267,-71.09333 -92.3333,-103.06666 15.1066,20 30.2266,40 45.3333,60 -26.96,-22.6 -55.7466,-46.05333 -90.4666,-51.64 -2.64,-0.42667 -9.7734,-0.0133 -18.2534,0.38667 -17.9066,0.85333 -41.7333,1.70666 -41.5466,-5.24 0.36,-12.69334 54.7466,-18.98667 64.3066,-20.21334"
         style="fill:#93ad3f;fill-opacity:1;fill-rule:nonzero;stroke:none;stroke-width:0.133333" />
      <path
         id="path64-4"
         d="m 3256.008,543.8494 -23.2534,-15.18667 c -22.6133,-7.70667 -49.24,-0.56 -65.84,16.62667 -16.5866,17.17333 -22.8666,43.30666 -17.0533,66.46666 5.8133,23.17333 23.12,42.89333 44.84,52.84 2.4533,1.12 5.28,2.13333 7.8,1.14667 2,-0.78667 3.32,-2.65334 4.8,-4.22667 8.08,-8.64 21.4933,-8.74667 32.5733,-12.89333 18.96,-7.12 31.0934,-27.18667 32.7067,-47.38667 1.6267,-20.18666 -5.8133,-40.22666 -16.5733,-57.38666"
         style="fill:#4f3522;fill-opacity:1;fill-rule:nonzero;stroke:none;stroke-width:0.133333" />
      <path
         id="path65-0"
         d="m 3294.0346,519.42273 -22.36,16.45333 c -15.1466,18.48 -17.7866,45.92 -7.5066,67.48 10.28,21.56 32.56,36.58667 56.2933,39.26667 23.7333,2.66666 48.2666,-6.62667 65.1866,-23.48 1.92,-1.92 3.8534,-4.2 3.8134,-6.90667 -0.027,-2.14666 -1.32,-4.05333 -2.28,-5.98666 -5.2534,-10.6 -0.6534,-23.18667 -0.6667,-35.01334 -0.013,-20.26666 -14.5733,-38.65333 -32.9067,-47.24 -18.3466,-8.6 -39.72,-8.65333 -59.5733,-4.57333"
         style="fill:#4f3522;fill-opacity:1;fill-rule:nonzero;stroke:none;stroke-width:0.133333" />
      <path
         id="path66-4"
         d="m 3206.6746,568.22273 c -3.64,15.09333 -3.3866,32.98667 7.76,43.8 7.48,7.24 18.2267,9.70667 28.4134,11.89333 16.7066,3.57333 33.4266,7.14667 50.1333,10.72 1.4,0.30667 2.8267,0.6 4.24,0.36 2.28,-0.4 4.0667,-2.13333 5.64,-3.84 14.5466,-15.77333 23.9866,-36.18666 26.5733,-57.49333 1.32,-10.81333 0.8533,-22.09333 -3.4667,-32.09333 -5.6266,-12.97334 -17.4399,-22.68 -30.7199,-27.54667 -42.1334,-15.48 -78.72,13.25333 -88.5734,54.2"
         style="fill:#755032;fill-opacity:1;fill-rule:nonzero;stroke:none;stroke-width:0.133333" />
      <path
         id="path67-6"
         d="m 2999.3413,555.82273 c 34.7467,1.8 69.5067,3.6 104.2667,5.4 -69.9867,19.70667 -133.4534,50.44 -185.52,89.81333 45.36,-16.61333 92.1333,-31.26666 140.0666,-43.86666 -53.8266,19.33333 -106.16,40.74666 -156.7733,64.11999 37.2,-12.41333 74.3867,-24.82666 111.5867,-37.24 -53.32,26.50667 -105.0534,54.72 -155.04,84.54667 37.12,-18.56 75.7333,-35.52 115.6133,-50.78667 -71.2267,34.08 -137.92,73.17334 -199.0267,116.72 44.64,-24.85333 89.5734,-49.82666 140.0267,-67.92 -65.8267,43.56 -129.2267,89.17333 -190.0133,136.69332 41,-26.1067 82,-52.21332 123,-78.31999 -61.4267,45.26669 -123.4667,91.11999 -167.4667,147.14669 47.6933,-39.1467 95.9333,-78.6267 154.96,-107.94669 -34.7867,30.13329 -69.8933,60.63999 -93.84,96.63999 28.44,-29.1733 60.4933,-56.2133 95.6667,-80.7333 -5.2667,34.9733 -42.0267,63.3066 -39.6,98.9733 26.3466,-37.7733 52.6933,-75.5467 79.04,-113.31999 -16.3334,28.25329 -27.8534,58.34669 -34.1867,89.37329 25.0933,-47.88 55.2667,-93.97329 90.1333,-137.73329 -5.0533,23.65334 -10.1066,47.30667 -15.1466,70.95999 -1.4934,7.04 -2.68,15.0667 3.3866,21.0533 17.48,-44.33329 34.96,-88.67995 52.44,-133.02662 -13.76,32.97333 -19.2666,68.37333 -16.1733,103.92002 14.8133,-45.38669 29.64,-90.77335 44.4533,-136.14668 -10.44,36.8 -18.0266,74.23999 -22.7066,112.07999 26.5066,-43.17333 43.7066,-89.69333 60.8,-135.99999 -9.0934,31.76 -14.8,64.26666 -17.04,97.13333 21.16,-46.48 42.32,-92.96 63.48,-139.44 -6.2,32.32 -12.4,64.64 -18.6,96.97333 28.5733,-47.22666 50.9733,-96.89333 66.8133,-148.10666 -3.0533,32.21333 -12.92,63.37333 -22.7467,94.38666 25.2267,-30.49333 42.92,-64.81333 52.0267,-100.90666 -3.7733,22.32 -9.44,44.33333 -16.96,65.86666 20.3067,-29.10666 38.4667,-59.14666 54.36,-89.98666 -7.9467,19.13333 -15.8933,38.26667 -23.84,57.4 15.8267,-23.65333 31.6267,-47.29333 47.4667,-70.93333 17.8933,-26.69334 4.6933,-30.74667 -31.2,-23.90667 -66.1067,12.61333 -130.84,28.34667 -193.7067,47.12"
         style="fill:#93ad3f;fill-opacity:1;fill-rule:nonzero;stroke:none;stroke-width:0.133333" />
      <path
         id="path68-4"
         d="m 3244.9146,582.91606 c -1.3333,0 -2.6533,-0.24 -3.8933,-0.73333 -7.28,-2.92 -9.1867,-12.28 -9.0533,-20.12 0.1466,-8.29333 1.5066,-16.8 5.8666,-23.84 3.6667,-5.89333 11.2934,-12.21333 18.7067,-12.21333 0.1333,0 0.2667,0 0.4133,0.0133 5.1867,0.16 18.2134,6.61333 18.7734,12.28 0.1466,1.38667 -0.56,2.72 -1.36,3.85333 -4.3467,6.18667 -12.2,9.65334 -15.32,16.54667 -2.8667,6.4 -1.0667,14.6 -5.4,20.10667 -2.0667,2.62666 -5.4134,4.10666 -8.7334,4.10666"
         style="fill:#8f7159;fill-opacity:1;fill-rule:nonzero;stroke:none;stroke-width:0.133333" />
      <path
         id="path69-6"
         d="m 3205.608,945.27601 c -1.0534,0.2 -2.0934,0.52 -3.1067,1 1.0667,-0.24 2.1067,-0.5866 3.1067,-1"
         style="fill:#7f5737;fill-opacity:1;fill-rule:nonzero;stroke:none;stroke-width:0.133333" />
      <path
         id="path70-4"
         d="m 3337.4879,1295.596 c -63.7733,-92.16 -95.5333,-274.92 -107.9733,-428.99999 -6.9466,-86.10662 -4.0933,-164.46662 1.2267,-224.97328 -2.12,-0.10667 -4.12,0.17333 -5.8667,0.94666 -0.6666,0.30667 -22.0266,45.69334 -22.2666,45.4 10.0533,12.84 13.16,30.82667 8,46.29334 -4.2934,12.89333 -13.3867,28.31999 -4.1067,38.22666 1.9067,2.02667 4.4267,3.48 6.0667,5.72 2.4133,3.29333 2.5466,7.65333 2.6933,11.73333 0.9067,24.86667 5.7333,49.65329 4.0533,74.47999 -1.68,24.8267 -11.3466,50.9333 -32.4266,64.16 10.68,-1.5467 21.3733,-3.0933 32.0533,-4.64 0.76,8.96 -5.08,17.9467 -13.3333,21.3333 6.68,-1.2533 14.0533,2.7467 18.0666,8.52 4.6534,6.6934 5.9067,15.1067 7.0267,23.1734 2.3733,17.0666 4.7467,34.42659 2.1067,51.45329 -2.64,17.04 -11.08,34 -25.8534,42.8533 9.8134,7.08 26.32,-11.12 33.88,-1.68 4.1467,5.1867 -0.3733,12.6267 -4.7466,17.6 4.5866,0.8667 9.1733,1.72 13.7733,2.5867 -9.6133,16.2133 -20.7733,31.52 -33.3067,45.6 5.1334,3.6667 12.2534,1.4267 17.9867,-1.1867 5.7467,-2.6266 12.3467,-5.5333 18.0667,-2.88 5.72,2.6534 5.3866,13.7867 -0.9067,13.36 12.8533,4.08 15.64,21.4934 11.9333,34.4534 -3.7066,12.96 -11.52,25.0666 -11.4133,38.5466 7.1333,-0.7466 14.28,-1.4933 21.4267,-2.24 -1.4534,16.44 -5.5467,32.64 -12.0534,47.7867 4.5467,1.56 9.44,-0.5733 13.9334,-2.28 4.4933,-1.7067 10,-2.8933 13.7733,0.093 3.7733,2.9867 1.4933,11.12 -3.12,9.7867 10.24,9.7067 20.4933,19.4267 30.7333,29.1333 3.6933,3.5067 7.5067,7.1867 9.2667,11.9734 7.8933,21.4666 -29.6933,40.8 -20.92,61.9333 14.2933,-10.24 28.5733,-20.4933 42.8666,-30.7467 0.4934,8.3467 1,16.68 1.4934,25.0267 5.0133,-6.8267 18.0266,-3.8 19.4933,4.5333 4.2667,-0.48 8.5333,-0.96 12.8,-1.44 -10.08,20.48 -20.16,40.96 -30.24,61.4267 14.2133,-10.56 28.7067,-20.7333 43.4667,-30.52 -4.5867,21.68 -12.32,42.6933 -22.9067,62.1467 25.4667,-2.3067 39.7733,-39.1467 65.1733,-36.2134 0.9867,7.6667 -1.0933,15.68 -5.6933,21.9067 4.72,-3.52 9.44,-7.0533 14.16,-10.5867 2.7467,7.2934 13.9733,9.3734 19.1467,3.5334 0.44,6.2133 0.8933,12.4266 1.3333,18.64 0.12,1.6666 0.3467,3.5466 1.68,4.5733 1.6533,1.2533 4,0.52 5.92,-0.28 15.12,-6.2267 30.5733,-12.6667 42.7067,-23.64 0.8933,-0.8133 1.76,-1.6533 2.6133,-2.52 v -0.08 c 0,0 -132.96,-73.4533 -181.7867,-144.0267"
         style="fill:#7f5737;fill-opacity:1;fill-rule:nonzero;stroke:none;stroke-width:0.133333" />
    </g>
  </g>
</svg>
